<svg width="190" height="166" viewBox="0 0 190 166" fill="none" xmlns="http://www.w3.org/2000/svg">
<line x1="67.5068" y1="17.3489" x2="118.337" y2="105.073" stroke="black"/>
<line x1="118.388" y1="105.565" x2="94.3656" y2="140.465" stroke="black"/>
<line x1="93.7435" y1="140.356" x2="72.0692" y2="105.546" stroke="black"/>
<line x1="84.893" y1="83.7327" x2="77.6683" y2="73.5524" stroke="black"/>
<line x1="78.181" y1="73.4843" x2="58.3005" y2="104.567" stroke="black"/>
<path d="M58.1309 104.209L95 165" stroke="black"/>
<line x1="124.6" y1="18.5" x2="163.6" y2="18.5" stroke="black"/>
<rect x="9.72852" y="6.74805" width="62.7026" height="11.4754" transform="rotate(-0.54417 9.72852 6.74805)" fill="#17822E"/>
<rect x="14.2822" y="7.02148" width="89.604" height="10.6224" transform="rotate(59.7623 14.2822 7.02148)" fill="#17822E"/>
<rect x="72.5811" y="6.53516" width="64.0378" height="11.4754" transform="rotate(58.7523 72.5811 6.53516)" fill="#17822E"/>
<rect x="114.628" y="6.2793" width="64.6604" height="12.8264" transform="rotate(0.10735 114.628 6.2793)" fill="#17822E"/>
<rect x="114.601" y="6.05859" width="65.0822" height="11.7682" transform="rotate(0.10735 114.601 6.05859)" fill="#17822E"/>
<rect x="182.643" y="12.9727" width="90.0315" height="12.3512" transform="rotate(119.302 182.643 12.9727)" fill="#17822E"/>
<rect x="98.2871" y="36.5859" width="34.5016" height="12.6125" transform="rotate(-60.3614 98.2871 36.5859)" fill="#17822E"/>
<rect x="99.4219" y="37.7344" width="34.5016" height="12.6125" transform="rotate(-60.3614 99.4219 37.7344)" fill="#17822E"/>
<rect x="100.604" y="52.4102" width="44.3474" height="11.4058" transform="rotate(60.0688 100.604 52.4102)" fill="#17822E"/>
<rect x="108.422" y="66.0742" width="44.3474" height="11.3325" transform="rotate(60.0688 108.422 66.0742)" fill="#17822E"/>
<rect x="131.291" y="106.461" width="48.8686" height="11.6204" transform="rotate(124.801 131.291 106.461)" fill="#17822E"/>
<rect x="66.3408" y="98.3848" width="48.8686" height="11.3643" transform="rotate(58.795 66.3408 98.3848)" fill="#17822E"/>
<rect x="67.8564" y="97.8145" width="50.467" height="11.7743" transform="rotate(57.7869 67.8564 97.8145)" fill="#17822E"/>
<rect x="82.8662" y="83.623" width="31.2059" height="11.3643" transform="rotate(121.436 82.8662 83.623)" fill="#17822E"/>
<rect x="85.4111" y="84.4668" width="31.2059" height="12.0378" transform="rotate(121.436 85.4111 84.4668)" fill="#17822E"/>
<path d="M131.468 106.807L105.573 148.268L98.0637 142.496L131.468 106.807Z" fill="#17822E"/>
<path d="M131.712 106.541L126.115 115.336L124.901 98.6486L131.712 106.541Z" fill="#17822E"/>
<rect x="129.635" y="103.879" width="0.492598" height="3.31311" transform="rotate(-29.2368 129.635 103.879)" fill="#17822E"/>
<path d="M94.7579 165.809L79.0721 141.414L109.914 141.081L94.7579 165.809Z" fill="#17822E"/>
<path d="M94.7579 164.659L79.0721 140.263L109.914 139.931L94.7579 164.659Z" fill="#17822E"/>
<path d="M82.194 80.6354L71.8797 79.8141L76.7888 71.8125L82.194 80.6354Z" fill="#17822E"/>
<rect x="77.2451" y="76.0781" width="2.29879" height="11.3298" transform="rotate(-35.415 77.2451 76.0781)" fill="#17822E"/>
<rect x="78.5996" y="80" width="3" height="4" fill="#17822E"/>
<rect x="77.0908" y="72.5508" width="0.48121" height="3.11979" transform="rotate(-33.7266 77.0908 72.5508)" fill="#17822E"/>
<path d="M77.0996 72L78.3986 73.5H75.8006L77.0996 72Z" fill="#17822E"/>
<rect x="85.2363" y="83.7324" width="0.492598" height="0.573024" transform="rotate(29.4429 85.2363 83.7324)" fill="#17822E"/>
<path d="M59.3899 84.5324L52.0517 92.4976L49.2587 87.7938L59.3899 84.5324Z" fill="#17822E"/>
<rect width="0.215488" height="4.77173" transform="matrix(-0.857309 0.514802 0.514802 0.857309 50.4199 89.6602)" fill="#17822E"/>
<rect width="0.215488" height="6.00582" transform="matrix(-0.887711 -0.4604 -0.4604 0.887711 55.582 88.5215)" fill="#17822E"/>
<path d="M54.8972 89.3535L53.2172 93.0577L51.5313 91.6369L54.8972 89.3535Z" fill="#17822E"/>
<rect x="52.332" y="91.6523" width="1.55337" height="0.820997" transform="rotate(57.5034 52.332 91.6523)" fill="#17822E"/>
<rect x="52.9404" y="93.0332" width="0.308085" height="0.569243" transform="rotate(57.5034 52.9404 93.0332)" fill="#17822E"/>
<path d="M52.7471 93.9455L52.4228 93.3701L53.0587 93.363L52.7471 93.9455Z" fill="#17822E"/>
<rect x="58.6904" y="83.9102" width="1.08326" height="10.6878" transform="rotate(36.7396 58.6904 83.9102)" fill="#17822E"/>
<path d="M115.76 7.58201L115.263 6.5968L116.258 6.59683L115.76 7.58201Z" fill="#17822E"/>
<path d="M115.924 7.74608L115.427 6.76086L116.422 6.76089L115.924 7.74608Z" fill="#17822E"/>
<path d="M98.3545 36.5766L110.609 43.563L105.885 48.5048L98.3545 36.5766Z" fill="#17822E"/>
<path d="M111.126 42.9169L106.991 49.2491L105.578 48.0567L111.126 42.9169Z" fill="#17822E"/>
<path d="M106.977 50.4967L105.162 46.5303L108.847 46.5564L106.977 50.4967Z" fill="#17822E"/>
<rect x="105.498" y="47.8047" width="0.328399" height="2.95559" transform="rotate(-28.2946 105.498 47.8047)" fill="#17822E"/>
<rect x="118.212" y="29.2617" width="0.409265" height="23.8078" transform="rotate(28.7155 118.212 29.2617)" fill="#17822E"/>
<path d="M129.916 89.6385L139.442 90.1613L134.879 97.7867L129.916 89.6385Z" fill="#17822E"/>
<path d="M129.963 89.6831L127.803 85.4439L131.606 87.4672L135.014 89.5307L129.963 89.6831Z" fill="#17822E"/>
<rect x="130.6" y="88" width="6" height="2" fill="#17822E"/>
<rect x="115.556" y="6.01367" width="1.97039" height="2.45751" transform="rotate(26.245 115.556 6.01367)" fill="#17822E"/>
<path d="M116.296 6.45665L115.556 6.00954L117.048 6.0305L116.296 6.45665Z" fill="#17822E"/>
<path d="M186.019 6.17778L180.413 16.709L174.088 6.17117L186.019 6.17778Z" fill="#17822E"/>
<path d="M185.282 7.98414L179.624 18.4289L173.403 8.06404L185.282 7.98414Z" fill="#17822E"/>
<path d="M185.68 7.22273L179.799 18.1425L173.277 7.27643L185.68 7.22273Z" fill="#17822E"/>
<rect x="114.51" y="6" width="1" height="15.7317" transform="rotate(22.1736 114.51 6)" fill="#17822E"/>
<rect x="114.669" y="6.0293" width="1.28914" height="15.7317" transform="rotate(25.4282 114.669 6.0293)" fill="#17822E"/>
<rect x="112.797" y="10.0059" width="1.4135" height="15.7317" transform="rotate(26.6279 112.797 10.0059)" fill="#17822E"/>
<rect x="185.373" y="6.18945" width="1.10992" height="21.0998" transform="rotate(29.7891 185.373 6.18945)" fill="#17822E"/>
<rect x="185.998" y="6.17773" width="0.57294" height="21.4201" transform="rotate(29.7891 185.998 6.17773)" fill="#17822E"/>
<rect x="8" y="11" width="2" height="6" fill="#17822E"/>
<rect x="8" y="7" width="2" height="6" fill="#17822E"/>
<path d="M2.99956 6.93531L11.7743 7.19014L6.71926 14.8867L2.99956 6.93531Z" fill="#17822E"/>
<rect x="3" y="6" width="70" height="1" fill="#17822E"/>
<rect x="3" y="7" width="70" height="1" fill="#17822E"/>
<rect x="2.05566" y="7.06055" width="1.97438" height="10" transform="rotate(-30.4 2.05566 7.06055)" fill="#17822E"/>
</svg>
